<?xml version="1.0" standalone="no"?>
<!DOCTYPE svg PUBLIC "-//W3C//DTD SVG 20010904//EN"
 "http://www.w3.org/TR/2001/REC-SVG-20010904/DTD/svg10.dtd">
<svg version="1.0" xmlns="http://www.w3.org/2000/svg"
 width="197.000000pt" height="232.000000pt" viewBox="0 0 197.000000 232.000000"
 preserveAspectRatio="xMidYMid meet">
<metadata>
Created by potrace 1.16, written by Peter Selinger 2001-2019
</metadata>
<g transform="translate(0.000000,232.000000) scale(0.100000,-0.100000)"
fill="#000000" stroke="none">
<path d="M1194 1721 c-32 -19 -74 -67 -74 -83 0 -22 32 -19 51 6 12 15 31 26
44 26 32 0 48 -46 85 -242 l30 -162 -37 -39 c-61 -62 -126 -87 -139 -52 -12
31 -43 17 -54 -26 -15 -56 -8 -69 38 -69 95 0 209 100 344 300 81 120 170 295
166 325 -3 17 -12 20 -67 23 -40 2 -68 -1 -75 -9 -8 -8 -8 -13 2 -16 45 -17
47 -51 10 -148 -26 -66 -108 -199 -118 -188 -4 4 -13 49 -19 98 -28 212 -57
275 -123 275 -18 0 -47 -9 -64 -19z"/>
<path d="M465 1406 c-31 -13 -105 -88 -105 -106 0 -5 9 -14 19 -19 16 -9 23
-5 45 24 35 45 78 49 95 8 17 -43 51 -185 51 -215 0 -40 -145 -212 -183 -216
-15 -2 -27 1 -27 7 0 6 -11 11 -24 11 -20 0 -25 -7 -35 -44 -18 -74 -17 -76
39 -76 45 0 55 4 93 40 24 21 68 73 98 114 55 76 69 89 69 60 0 -46 34 -158
57 -184 21 -25 32 -30 71 -30 55 0 98 23 136 73 30 40 32 52 9 61 -12 5 -27
-4 -49 -29 -67 -72 -89 -46 -134 160 l-17 80 40 50 c62 77 130 145 144 145 8
0 16 -7 19 -15 4 -8 16 -15 29 -15 19 0 25 8 35 50 17 71 10 84 -45 78 -62 -8
-85 -25 -168 -133 l-72 -95 -8 48 c-26 158 -83 211 -182 168z"/>
</g>
</svg>
