<?xml version="1.0" standalone="no"?>
<!DOCTYPE svg PUBLIC "-//W3C//DTD SVG 20010904//EN"
 "http://www.w3.org/TR/2001/REC-SVG-20010904/DTD/svg10.dtd">
<svg version="1.0" xmlns="http://www.w3.org/2000/svg"
 width="236.000000pt" height="211.000000pt" viewBox="0 0 236.000000 211.000000"
 preserveAspectRatio="xMidYMid meet">
<metadata>
Created by potrace 1.16, written by Peter Selinger 2001-2019
</metadata>
<g transform="translate(0.000000,211.000000) scale(0.100000,-0.100000)"
fill="#000000" stroke="none">
<path d="M628 1714 c-47 -14 -48 -16 -48 -54 0 -34 3 -40 21 -40 11 0 35 16
53 35 28 29 40 35 75 35 54 0 81 -26 81 -78 0 -47 -12 -64 -125 -182 -85 -90
-130 -154 -119 -172 3 -4 79 -8 170 -8 l164 0 0 55 c0 61 -17 73 -48 35 -15
-19 -26 -21 -106 -18 l-90 3 116 116 c124 122 141 154 121 216 -16 49 -65 73
-147 72 -39 0 -92 -7 -118 -15z"/>
<path d="M1345 1677 c-3 -7 -75 -255 -161 -552 -85 -297 -157 -541 -158 -542
-1 -1 -53 110 -115 247 l-113 249 -32 -13 c-150 -66 -176 -80 -176 -98 0 -28
22 -31 75 -8 26 11 49 19 50 18 1 -2 62 -132 136 -290 128 -279 134 -288 161
-288 18 0 31 7 36 18 4 9 83 278 177 597 l170 580 65 6 c36 4 215 7 398 8
l332 1 0 40 0 41 -421 -2 c-308 0 -421 -4 -424 -12z"/>
<path d="M1622 1193 c-32 -15 -92 -81 -92 -101 0 -5 7 -15 15 -22 11 -10 20
-5 46 25 24 27 39 35 58 33 33 -4 43 -26 72 -154 l23 -102 -44 -53 c-73 -90
-133 -149 -152 -149 -10 0 -18 5 -18 11 0 6 -12 9 -27 7 -24 -3 -29 -9 -39
-55 -6 -29 -9 -55 -6 -58 3 -3 24 -5 47 -5 59 0 97 29 179 138 38 50 71 90 73
88 2 -2 13 -42 24 -89 25 -104 51 -137 111 -137 50 0 85 19 131 69 42 47 43
49 20 66 -15 11 -23 8 -54 -26 -20 -21 -40 -39 -46 -39 -27 0 -46 33 -67 115
-44 172 -47 151 38 253 80 96 111 116 132 87 22 -30 47 -14 61 40 18 71 13 78
-48 73 -59 -6 -97 -38 -181 -151 -51 -68 -67 -74 -68 -21 0 41 -32 127 -55
150 -29 29 -83 32 -133 7z"/>
</g>
</svg>
