<?xml version="1.0" standalone="no"?>
<!DOCTYPE svg PUBLIC "-//W3C//DTD SVG 20010904//EN"
 "http://www.w3.org/TR/2001/REC-SVG-20010904/DTD/svg10.dtd">
<svg version="1.0" xmlns="http://www.w3.org/2000/svg"
 width="187.000000pt" height="193.000000pt" viewBox="0 0 187.000000 193.000000"
 preserveAspectRatio="xMidYMid meet">
<metadata>
Created by potrace 1.16, written by Peter Selinger 2001-2019
</metadata>
<g transform="translate(0.000000,193.000000) scale(0.100000,-0.100000)"
fill="#000000" stroke="none">
<path d="M1262 1590 c-40 -11 -77 -22 -82 -25 -6 -4 -10 -26 -10 -51 0 -44 0
-44 34 -44 25 0 36 5 40 18 24 75 154 95 195 31 18 -30 16 -100 -4 -139 -9
-18 -58 -76 -108 -129 -95 -101 -167 -201 -167 -233 0 -17 10 -18 198 -16
l197 3 3 68 c3 61 1 67 -17 67 -11 0 -26 -10 -32 -22 -7 -13 -17 -26 -23 -30
-16 -11 -216 -10 -216 1 0 6 56 68 124 139 68 71 131 143 140 160 9 17 16 54
16 83 0 44 -4 55 -33 84 -57 57 -131 67 -255 35z"/>
<path d="M514 1146 c-17 -8 -48 -35 -69 -60 -36 -45 -37 -47 -19 -61 17 -13
22 -11 49 20 35 41 78 47 95 14 6 -11 22 -68 35 -127 28 -122 33 -104 -67
-221 -77 -90 -91 -100 -118 -83 -40 24 -56 15 -68 -39 -17 -70 -17 -69 34 -69
66 0 96 22 181 133 41 54 77 97 79 95 2 -2 10 -37 19 -76 25 -122 49 -152 120
-152 48 0 86 21 129 71 27 33 33 45 25 56 -17 20 -30 16 -65 -22 -38 -42 -58
-44 -80 -9 -17 25 -64 201 -64 238 0 33 152 206 181 206 9 0 19 -7 23 -15 3
-8 14 -15 25 -15 20 0 34 34 43 100 3 24 1 25 -47 25 -67 -1 -97 -23 -176
-130 -35 -47 -66 -85 -69 -85 -3 0 -11 29 -17 64 -24 139 -81 184 -179 142z"/>
</g>
</svg>
