<?xml version="1.0" standalone="no"?>
<!DOCTYPE svg PUBLIC "-//W3C//DTD SVG 20010904//EN"
 "http://www.w3.org/TR/2001/REC-SVG-20010904/DTD/svg10.dtd">
<svg version="1.0" xmlns="http://www.w3.org/2000/svg"
 width="240.000000pt" height="212.000000pt" viewBox="0 0 240.000000 212.000000"
 preserveAspectRatio="xMidYMid meet">
<metadata>
Created by potrace 1.16, written by Peter Selinger 2001-2019
</metadata>
<g transform="translate(0.000000,212.000000) scale(0.100000,-0.100000)"
fill="#000000" stroke="none">
<path d="M434 1720 c-22 -9 -74 -65 -74 -80 0 -22 25 -20 47 4 49 53 71 26
101 -129 39 -193 39 -187 -2 -233 -20 -22 -50 -45 -67 -53 -28 -11 -33 -10
-44 4 -21 29 -43 20 -54 -20 -15 -52 -15 -51 23 -58 55 -11 113 22 190 107 93
103 175 220 232 331 59 116 57 127 -26 127 -65 0 -75 -10 -38 -40 l23 -18 -20
-58 c-22 -66 -104 -199 -115 -187 -4 4 -12 46 -19 93 -17 120 -37 186 -63 205
-24 16 -61 19 -94 5z"/>
<path d="M1270 1593 l-45 -4 -149 -517 c-82 -284 -154 -532 -160 -550 -12 -33
-13 -30 -125 217 l-113 250 -57 -26 c-31 -14 -77 -34 -103 -45 -47 -20 -54
-31 -42 -62 5 -13 14 -12 61 10 31 13 57 23 58 22 1 -2 62 -132 135 -290 133
-287 133 -288 164 -288 l31 0 175 598 175 597 65 6 c36 4 215 7 398 8 l332 1
0 40 0 40 -377 -2 c-208 -1 -398 -3 -423 -5z"/>
<path d="M1504 1106 c-17 -8 -48 -35 -69 -60 -36 -45 -37 -47 -19 -61 26 -20
26 -19 52 20 17 27 29 35 52 35 38 0 45 -15 75 -148 28 -122 34 -105 -70 -225
-73 -86 -88 -96 -116 -79 -39 24 -55 15 -67 -39 -7 -28 -12 -55 -12 -60 0 -14
88 -11 118 5 25 13 81 78 157 181 l29 39 18 -77 c29 -128 52 -157 123 -157 48
0 86 21 129 71 27 33 33 45 25 56 -17 20 -30 16 -65 -22 -38 -42 -58 -44 -80
-9 -17 26 -64 202 -64 239 1 25 126 174 163 195 26 14 29 13 38 -2 18 -32 47
-22 58 20 19 76 19 81 4 86 -63 24 -121 -9 -205 -118 -38 -50 -73 -92 -77 -94
-4 -1 -12 26 -18 61 -24 140 -81 185 -179 143z"/>
</g>
</svg>
